
<svg viewBox="0 0 523 200" fill="none" xmlns="http://www.w3.org/2000/svg">
<g clip-path="url(#clip0_3146_6514)">
<path d="M498.085 0H24.8623C11.3638 0 0.421143 10.9427 0.421143 24.4412V175.559C0.421143 189.057 11.3638 200 24.8623 200H498.085C511.584 200 522.526 189.057 522.526 175.559V24.4412C522.526 10.9427 511.584 0 498.085 0Z" fill="black"/>
<path d="M498.085 2.04272H24.8622C12.492 2.04272 2.46399 12.0707 2.46399 24.4409V175.558C2.46399 187.928 12.492 197.956 24.8622 197.956H498.085C510.455 197.956 520.483 187.928 520.483 175.558V24.4409C520.483 12.0707 510.455 2.04272 498.085 2.04272Z" stroke="white" stroke-opacity="0.68" stroke-width="4.08579"/>
<path d="M181.041 81.5535C178.464 81.5535 176.174 81.1121 174.17 80.2293C172.177 79.3464 170.602 78.1177 169.445 76.543C168.288 74.9682 167.674 73.149 167.602 71.0851H174.331C174.391 72.0753 174.718 72.9402 175.315 73.6798C175.912 74.4076 176.704 74.9742 177.695 75.3798C178.685 75.7855 179.795 75.9882 181.023 75.9882C182.336 75.9882 183.499 75.7616 184.513 75.3082C185.526 74.843 186.32 74.1988 186.893 73.3756C187.465 72.5524 187.745 71.604 187.734 70.5303C187.745 69.4209 187.459 68.4427 186.875 67.5956C186.291 66.7487 185.443 66.0866 184.334 65.6094C183.236 65.1321 181.912 64.8936 180.361 64.8936H177.122V59.7757H180.361C181.638 59.7757 182.753 59.555 183.707 59.1136C184.674 58.6721 185.432 58.0518 185.98 57.2525C186.528 56.4413 186.797 55.5049 186.785 54.4431C186.797 53.4052 186.564 52.5044 186.087 51.741C185.622 50.9655 184.96 50.3631 184.101 49.9336C183.254 49.5041 182.258 49.2894 181.113 49.2894C179.992 49.2894 178.954 49.4922 177.999 49.8978C177.044 50.3034 176.275 50.882 175.691 51.6336C175.106 52.3733 174.796 53.256 174.76 54.282H168.372C168.419 52.2301 169.01 50.4287 170.143 48.8778C171.288 47.315 172.816 46.0981 174.724 45.2273C176.633 44.3445 178.775 43.9031 181.148 43.9031C183.594 43.9031 185.718 44.3624 187.519 45.281C189.333 46.1876 190.734 47.4104 191.724 48.9494C192.715 50.4883 193.21 52.1883 193.21 54.0494C193.221 56.1132 192.613 57.8431 191.384 59.2389C190.167 60.6347 188.568 61.5473 186.588 61.9768V62.2631C189.165 62.621 191.14 63.5753 192.512 65.1262C193.896 66.6651 194.581 68.5798 194.57 70.8703C194.57 72.9223 193.985 74.7595 192.816 76.3819C191.659 77.9925 190.06 79.257 188.02 80.1756C185.992 81.0942 183.665 81.5535 181.041 81.5535ZM207.93 81.6072C206.187 81.6072 204.619 81.297 203.223 80.6767C201.84 80.0443 200.742 79.1138 199.931 77.8851C199.132 76.6563 198.732 75.1413 198.732 73.3398C198.732 71.789 199.018 70.5065 199.591 69.4924C200.163 68.4784 200.945 67.6672 201.935 67.0588C202.925 66.4503 204.041 65.9911 205.281 65.681C206.534 65.3589 207.828 65.1262 209.164 64.9831C210.775 64.816 212.081 64.6669 213.083 64.5357C214.085 64.3926 214.813 64.1778 215.266 63.8915C215.732 63.5932 215.964 63.1339 215.964 62.5136V62.4062C215.964 61.0581 215.564 60.0142 214.765 59.2747C213.966 58.535 212.815 58.1652 211.312 58.1652C209.725 58.1652 208.466 58.5111 207.536 59.2031C206.617 59.895 205.997 60.7121 205.675 61.6547L199.626 60.7957C200.104 59.1255 200.892 57.7297 201.988 56.6083C203.086 55.475 204.428 54.628 206.015 54.0673C207.601 53.4947 209.355 53.2083 211.276 53.2083C212.6 53.2083 213.918 53.3634 215.231 53.6736C216.543 53.9838 217.742 54.4968 218.827 55.2125C219.913 55.9163 220.784 56.8768 221.44 58.0936C222.108 59.3104 222.442 60.8315 222.442 62.6568V81.0524H216.215V77.2767H216C215.606 78.0401 215.052 78.7559 214.336 79.424C213.632 80.0801 212.743 80.6111 211.67 81.0167C210.607 81.4103 209.361 81.6072 207.93 81.6072ZM209.612 76.8472C210.912 76.8472 212.039 76.5907 212.994 76.0777C213.948 75.5529 214.682 74.8609 215.195 74.0019C215.72 73.143 215.982 72.2066 215.982 71.1924V67.9535C215.779 68.1206 215.434 68.2756 214.944 68.4188C214.467 68.5619 213.931 68.6872 213.334 68.7946C212.737 68.9019 212.146 68.9974 211.562 69.0809C210.978 69.1644 210.471 69.236 210.041 69.2956C209.075 69.4269 208.21 69.6416 207.446 69.9398C206.683 70.2381 206.08 70.6556 205.639 71.1924C205.198 71.7174 204.977 72.3974 204.977 73.2324C204.977 74.4255 205.413 75.3261 206.283 75.9346C207.154 76.543 208.263 76.8472 209.612 76.8472ZM246.374 53.5662V58.881H234.527V81.0524H228.193V53.5662H246.374ZM250.804 91.3598V53.5662H257.175V58.1115H257.551C257.885 57.4434 258.356 56.7336 258.964 55.982C259.573 55.2186 260.396 54.5683 261.434 54.0315C262.472 53.4828 263.796 53.2083 265.406 53.2083C267.531 53.2083 269.445 53.7512 271.151 54.8368C272.868 55.9104 274.228 57.5031 275.231 59.6147C276.245 61.7142 276.752 64.2911 276.752 67.3451C276.752 70.3634 276.257 72.9282 275.266 75.0398C274.277 77.1514 272.928 78.7619 271.222 79.8714C269.517 80.9809 267.584 81.5356 265.424 81.5356C263.85 81.5356 262.543 81.2732 261.505 80.7482C260.467 80.2233 259.633 79.5911 259 78.8514C258.38 78.0998 257.897 77.39 257.551 76.7219H257.282V91.3598H250.804ZM257.157 67.3093C257.157 69.0869 257.407 70.6437 257.908 71.9798C258.422 73.316 259.156 74.3598 260.11 75.1114C261.076 75.8511 262.245 76.2209 263.617 76.2209C265.048 76.2209 266.247 75.8392 267.214 75.0756C268.18 74.3002 268.908 73.2445 269.397 71.9082C269.898 70.5602 270.148 69.0272 270.148 67.3093C270.148 65.6034 269.904 64.0883 269.415 62.7641C268.926 61.4399 268.198 60.402 267.232 59.6504C266.265 58.8989 265.061 58.5231 263.617 58.5231C262.234 58.5231 261.058 58.8869 260.092 59.6147C259.125 60.3423 258.392 61.3623 257.891 62.6747C257.402 63.9869 257.157 65.5318 257.157 67.3093ZM284.627 91.3598C283.744 91.3598 282.927 91.2882 282.176 91.1451C281.436 91.0138 280.845 90.8588 280.404 90.6798L281.907 85.6335C282.85 85.9079 283.691 86.0391 284.431 86.0272C285.171 86.0153 285.82 85.7827 286.381 85.3293C286.954 84.8879 287.437 84.1482 287.831 83.1103L288.385 81.6251L278.418 53.5662H285.29L291.624 74.324H291.911L298.263 53.5662H305.153L294.147 84.3809C293.635 85.8363 292.955 87.083 292.107 88.1209C291.26 89.1707 290.222 89.9699 288.994 90.5188C287.777 91.0794 286.321 91.3598 284.627 91.3598ZM307.352 73.5188H313.776C313.835 74.5448 314.295 75.3381 315.154 75.8988C316.012 76.4595 317.127 76.7398 318.499 76.7398C319.895 76.7398 321.071 76.4356 322.024 75.8272C322.991 75.2069 323.474 74.2703 323.474 73.0177C323.474 72.2781 323.29 71.6279 322.919 71.0672C322.55 70.4946 322.031 70.0532 321.362 69.743C320.695 69.4329 319.907 69.2777 319 69.2777H314.796V64.6789H319C320.348 64.6789 321.368 64.3687 322.06 63.7483C322.764 63.1279 323.116 62.3465 323.116 61.4041C323.116 60.39 322.746 59.5669 322.006 58.9347C321.279 58.3023 320.271 57.9862 318.982 57.9862C317.694 57.9862 316.62 58.2784 315.761 58.8631C314.915 59.4476 314.474 60.1992 314.438 61.1178H308.05C308.073 59.5192 308.551 58.1294 309.481 56.9483C310.423 55.7673 311.687 54.8487 313.275 54.1926C314.873 53.5364 316.674 53.2083 318.678 53.2083C320.825 53.2083 322.681 53.5304 324.243 54.1747C325.806 54.8189 327.012 55.7195 327.858 56.8768C328.705 58.022 329.128 59.37 329.128 60.921C329.128 62.4121 328.663 63.6469 327.733 64.6252C326.802 65.5915 325.55 66.2834 323.975 66.7009V66.9872C325.061 67.0469 326.039 67.3571 326.91 67.9177C327.781 68.4666 328.473 69.2121 328.985 70.1546C329.499 71.0971 329.755 72.1887 329.755 73.4293C329.755 75.1114 329.272 76.5669 328.305 77.7956C327.339 79.0124 326.01 79.949 324.315 80.6051C322.633 81.2612 320.706 81.5893 318.535 81.5893C316.423 81.5893 314.533 81.2732 312.863 80.6409C311.204 79.9967 309.886 79.0721 308.908 77.8672C307.93 76.6622 307.411 75.2129 307.352 73.5188ZM340.337 72.284L351.342 53.5662H357.999V81.0524H351.736V62.3168L340.766 81.0524H334.092V53.5662H340.337V72.284ZM360.811 58.881V53.5662H384.861V58.881H375.967V81.0524H369.704V58.881H360.811ZM400.293 81.5893C397.537 81.5893 395.157 81.0167 393.153 79.8714C391.16 78.7142 389.627 77.0798 388.554 74.9682C387.48 72.8448 386.943 70.3455 386.943 67.4703C386.943 64.6431 387.48 62.1616 388.554 60.0262C389.639 57.8789 391.155 56.2087 393.099 55.0157C395.043 53.8108 397.328 53.2083 399.953 53.2083C401.646 53.2083 403.245 53.4828 404.748 54.0315C406.263 54.5683 407.6 55.4034 408.757 56.5368C409.926 57.67 410.844 59.1136 411.513 60.8673C412.181 62.609 412.515 64.6848 412.515 67.0946V69.0809H389.985V64.7147H406.305C406.294 63.4739 406.025 62.3704 405.5 61.4041C404.975 60.4258 404.241 59.6563 403.299 59.0957C402.368 58.535 401.283 58.2547 400.042 58.2547C398.718 58.2547 397.555 58.5768 396.553 59.221C395.551 59.8532 394.77 60.6883 394.208 61.7262C393.66 62.7521 393.379 63.8795 393.367 65.1083V68.9198C393.367 70.5184 393.66 71.8903 394.244 73.0356C394.828 74.169 395.646 75.0398 396.696 75.6482C397.745 76.2448 398.975 76.543 400.382 76.543C401.324 76.543 402.178 76.4117 402.941 76.1493C403.704 75.875 404.366 75.4753 404.927 74.9503C405.488 74.4255 405.912 73.7753 406.198 72.9998L412.246 73.6798C411.864 75.2784 411.137 76.6742 410.063 77.8672C409.001 79.0482 407.641 79.9669 405.983 80.623C404.325 81.2672 402.428 81.5893 400.293 81.5893ZM447.847 64.6252V69.9398H433.21V64.6252H447.847ZM435.214 53.5662V81.0524H428.968V53.5662H435.214ZM452.089 53.5662V81.0524H445.861V53.5662H452.089ZM465.788 81.6072C464.046 81.6072 462.478 81.297 461.082 80.6767C459.698 80.0443 458.601 79.1138 457.79 77.8851C456.991 76.6563 456.591 75.1413 456.591 73.3398C456.591 71.789 456.877 70.5065 457.45 69.4924C458.022 68.4784 458.803 67.6672 459.794 67.0588C460.784 66.4503 461.899 65.9911 463.14 65.681C464.393 65.3589 465.687 65.1262 467.023 64.9831C468.634 64.816 469.94 64.6669 470.942 64.5357C471.944 64.3926 472.672 64.1778 473.125 63.8915C473.591 63.5932 473.823 63.1339 473.823 62.5136V62.4062C473.823 61.0581 473.423 60.0142 472.624 59.2747C471.825 58.535 470.674 58.1652 469.171 58.1652C467.584 58.1652 466.325 58.5111 465.395 59.2031C464.476 59.895 463.856 60.7121 463.534 61.6547L457.485 60.7957C457.962 59.1255 458.75 57.7297 459.847 56.6083C460.945 55.475 462.287 54.628 463.874 54.0673C465.46 53.4947 467.214 53.2083 469.135 53.2083C470.459 53.2083 471.777 53.3634 473.09 53.6736C474.402 53.9838 475.601 54.4968 476.686 55.2125C477.772 55.9163 478.643 56.8768 479.299 58.0936C479.967 59.3104 480.301 60.8315 480.301 62.6568V81.0524H474.074V77.2767H473.859C473.465 78.0401 472.911 78.7559 472.195 79.424C471.491 80.0801 470.602 80.6111 469.529 81.0167C468.466 81.4103 467.22 81.6072 465.788 81.6072ZM467.471 76.8472C468.771 76.8472 469.898 76.5907 470.853 76.0777C471.807 75.5529 472.541 74.8609 473.054 74.0019C473.579 73.143 473.841 72.2066 473.841 71.1924V67.9535C473.638 68.1206 473.293 68.2756 472.803 68.4188C472.326 68.5619 471.79 68.6872 471.193 68.7946C470.596 68.9019 470.005 68.9974 469.421 69.0809C468.837 69.1644 468.33 69.236 467.9 69.2956C466.934 69.4269 466.068 69.6416 465.305 69.9398C464.542 70.2381 463.939 70.6556 463.498 71.1924C463.057 71.7174 462.836 72.3974 462.836 73.2324C462.836 74.4255 463.272 75.3261 464.142 75.9346C465.013 76.543 466.122 76.8472 467.471 76.8472Z" fill="white"/>
<path d="M186.698 139.138L194.624 117.681H202.202L190.037 150.142H183.417L171.513 117.681H179.091L186.698 139.138ZM176.855 117.681V150.142H167.071V117.681H176.855ZM197.151 150.142V117.681H206.791V150.142H197.151ZM225.71 150.752C222.303 150.752 219.38 150.055 216.941 148.661C214.502 147.248 212.624 145.293 211.308 142.796C210.012 140.28 209.363 137.357 209.363 134.027C209.363 130.679 210.012 127.756 211.308 125.259C212.624 122.743 214.502 120.787 216.941 119.394C219.38 117.981 222.303 117.275 225.71 117.275C229.117 117.275 232.039 117.981 234.478 119.394C236.937 120.787 238.814 122.743 240.111 125.259C241.427 127.756 242.085 130.679 242.085 134.027C242.085 137.357 241.427 140.28 240.111 142.796C238.814 145.293 236.937 147.248 234.478 148.661C232.039 150.055 229.117 150.752 225.71 150.752ZM225.767 142.883C227.026 142.883 228.081 142.516 228.933 141.78C229.784 141.044 230.433 140.008 230.878 138.673C231.342 137.318 231.575 135.751 231.575 133.97C231.575 132.17 231.342 130.612 230.878 129.295C230.433 127.979 229.784 126.962 228.933 126.246C228.081 125.511 227.026 125.143 225.767 125.143C224.509 125.143 223.435 125.511 222.545 126.246C221.655 126.962 220.986 127.979 220.541 129.295C220.096 130.612 219.874 132.17 219.874 133.97C219.874 135.751 220.096 137.318 220.541 138.673C220.986 140.008 221.655 141.044 222.545 141.78C223.435 142.516 224.509 142.883 225.767 142.883ZM272.502 105.864L275.348 112.687C274.438 113.384 273.461 113.916 272.416 114.284C271.371 114.633 270.093 114.875 268.583 115.01C267.073 115.126 265.166 115.184 262.863 115.184C260.288 115.203 258.198 115.561 256.592 116.258C254.985 116.955 253.765 118.087 252.933 119.656C252.12 121.223 251.578 123.304 251.307 125.898H251.598C252.526 123.943 253.843 122.404 255.546 121.281C257.269 120.159 259.476 119.597 262.166 119.597C265.012 119.597 267.48 120.207 269.571 121.426C271.68 122.646 273.306 124.378 274.447 126.624C275.61 128.87 276.18 131.54 276.161 134.637C276.18 137.89 275.532 140.725 274.216 143.144C272.899 145.564 271.022 147.442 268.583 148.777C266.144 150.094 263.231 150.752 259.843 150.752C254.734 150.752 250.726 149.213 247.823 146.135C244.939 143.038 243.487 138.557 243.467 132.692V130.34C243.487 122.307 245.103 116.403 248.317 112.63C251.55 108.835 256.292 106.919 262.543 106.88C264.093 106.861 265.505 106.861 266.783 106.88C268.06 106.88 269.174 106.813 270.122 106.677C271.089 106.541 271.883 106.271 272.502 105.864ZM259.901 142.971C261.082 142.971 262.098 142.651 262.951 142.013C263.821 141.374 264.488 140.463 264.954 139.283C265.418 138.102 265.641 136.69 265.621 135.044C265.641 133.36 265.418 131.937 264.954 130.776C264.488 129.595 263.821 128.704 262.951 128.104C262.098 127.504 261.073 127.204 259.873 127.204C258.963 127.204 258.149 127.379 257.434 127.727C256.717 128.056 256.098 128.559 255.575 129.237C255.072 129.915 254.685 130.737 254.414 131.705C254.162 132.673 254.037 133.785 254.037 135.044C254.017 137.502 254.531 139.438 255.575 140.851C256.62 142.264 258.062 142.971 259.901 142.971ZM288.519 136.786L298.884 117.681H308.814V150.142H299.058V131.008L288.693 150.142H278.734V117.681H288.519V136.786ZM311.009 150.142L310.98 142.186H311.997C312.945 142.186 313.719 141.857 314.319 141.199C314.939 140.522 315.413 139.438 315.742 137.947C316.072 136.457 316.284 134.502 316.381 132.082L316.903 117.681H342.599V150.142H332.815V125.579H326.137L325.614 134.957C325.459 137.686 325.092 140.018 324.511 141.954C323.93 143.89 323.146 145.467 322.159 146.686C321.172 147.886 319.991 148.767 318.617 149.328C317.261 149.871 315.742 150.142 314.058 150.142H311.009ZM352.489 127.088H362.332C366.803 127.068 370.297 128.114 372.814 130.224C375.349 132.315 376.617 135.141 376.617 138.702C376.617 141.025 376.046 143.047 374.904 144.771C373.762 146.474 372.126 147.8 369.997 148.748C367.867 149.677 365.313 150.142 362.332 150.142H346.421V117.681H356.205V142.244H362.332C363.667 142.244 364.771 141.916 365.642 141.257C366.533 140.599 366.977 139.747 366.977 138.702C366.977 137.599 366.533 136.699 365.642 136.002C364.771 135.305 363.667 134.966 362.332 134.985H352.489V127.088ZM402.012 129.904V137.744H385.433V129.904H402.012ZM388.975 117.681V150.142H379.189V117.681H388.975ZM408.283 117.681V150.142H398.585V117.681H408.283ZM418.143 127.088H427.986C432.458 127.068 435.952 128.114 438.467 130.224C441.003 132.315 442.272 135.141 442.272 138.702C442.272 141.025 441.7 143.047 440.558 144.771C439.416 146.474 437.781 147.8 435.652 148.748C433.522 149.677 430.967 150.142 427.986 150.142H412.075V117.681H421.86V142.244H427.986C429.322 142.244 430.425 141.916 431.296 141.257C432.186 140.599 432.632 139.747 432.632 138.702C432.632 137.599 432.186 136.699 431.296 136.002C430.425 135.305 429.322 134.966 427.986 134.985H418.143V127.088ZM445.204 150.142V117.681H455.54V150.142H445.204ZM468.159 117.681L473.473 128.424L479.018 117.681H489.442L480.383 133.94L489.791 150.142H479.424L473.473 139.399L467.695 150.142H457.213L466.649 133.94L457.678 117.681H468.159Z" fill="white"/>
<path d="M64.409 153.195C64.1244 152.7 63.7465 152.288 63.2852 151.961C62.824 151.632 62.2302 151.324 61.5088 151.03L58.6872 149.89C58.3683 149.763 58.1082 149.63 57.8971 149.494C57.6862 149.357 57.5291 149.205 57.4212 149.034C57.3182 148.867 57.2397 148.657 57.2004 148.417C57.1562 148.172 57.1366 147.874 57.1366 147.517C57.1366 146.777 57.2642 146.239 57.5144 145.906C57.642 145.74 57.8088 145.598 58.0248 145.48C58.2358 145.363 58.5008 145.304 58.8198 145.304C59.1583 145.304 59.4282 145.358 59.6295 145.461C59.8306 145.563 59.9925 145.705 60.1202 145.871C60.3116 146.126 60.4195 146.425 60.4539 146.772C60.4882 147.12 60.5029 147.497 60.5029 147.894H65.0028C65.0028 146.752 64.8654 145.744 64.5906 144.859C64.3158 143.972 63.8741 143.248 63.2607 142.676C62.2449 141.726 60.7679 141.256 58.8246 141.256C57.9561 141.256 57.1857 141.379 56.5134 141.618C55.841 141.858 55.2228 142.216 54.6731 142.676C53.996 143.267 53.4905 143.982 53.152 144.824C52.8134 145.666 52.6416 146.616 52.6416 147.668C52.6416 148.554 52.7054 149.303 52.833 149.915C52.9606 150.526 53.152 151.045 53.4022 151.466C53.6525 151.887 53.9862 152.244 54.4032 152.538C54.8155 152.831 55.3062 153.097 55.8755 153.331L58.7265 154.501C59.1289 154.672 59.4527 154.829 59.708 154.976C59.9631 155.123 60.1594 155.308 60.3116 155.529C60.4587 155.749 60.5569 156.038 60.6158 156.385C60.6698 156.732 60.6943 157.168 60.6943 157.697C60.6943 158.603 60.547 159.235 60.2526 159.597C59.9582 159.974 59.4822 160.164 58.8296 160.164C58.4714 160.164 58.1769 160.11 57.9561 160.007C57.7352 159.905 57.5586 159.778 57.431 159.63C57.22 159.401 57.0875 159.111 57.0336 158.774C56.9796 158.437 56.955 158.035 56.955 157.57H52.4502C52.4502 158.73 52.5631 159.714 52.7839 160.526C53.0047 161.339 53.3924 162.019 53.942 162.567C54.4524 163.077 55.1099 163.472 55.9245 163.771C56.7391 164.065 57.7058 164.211 58.8246 164.211C59.9435 164.211 60.8906 164.056 61.7248 163.737C62.559 163.419 63.2312 163.023 63.7367 162.534C64.3305 161.965 64.7182 161.276 64.9096 160.463C65.1009 159.65 65.1942 158.676 65.1942 157.536C65.1942 156.522 65.1352 155.67 65.0175 154.976C64.8948 154.276 64.6985 153.684 64.409 153.184V153.195Z" fill="white"/>
<path d="M66.1016 145.495H69.9046V163.962H74.4094V145.495H78.2124V141.451H66.1016V145.495Z" fill="white"/>
<path d="M92.0309 147.187C91.9278 146.419 91.761 145.729 91.5402 145.117C91.3193 144.505 91.0053 143.957 90.6078 143.473C90.0974 142.841 89.4546 142.303 88.6744 141.862C87.8892 141.422 86.8882 141.197 85.6663 141.197C84.4444 141.197 83.4384 141.417 82.6582 141.862C81.873 142.303 81.2351 142.841 80.7248 143.473C80.3224 143.957 80.0132 144.505 79.7875 145.117C79.5667 145.729 79.3949 146.419 79.2771 147.187C79.1593 147.956 79.0907 148.798 79.071 149.718C79.0514 150.634 79.0416 151.632 79.0416 152.704C79.0416 153.776 79.0514 154.775 79.071 155.689C79.0907 156.605 79.1593 157.452 79.2771 158.22C79.3949 158.988 79.5617 159.679 79.7875 160.29C80.0083 160.902 80.3224 161.45 80.7248 161.935C81.2351 162.566 81.873 163.105 82.6582 163.545C83.4384 163.986 84.4444 164.212 85.6663 164.212C86.8882 164.212 87.8942 163.99 88.6744 163.545C89.4546 163.1 90.0974 162.566 90.6078 161.935C91.0102 161.45 91.3193 160.902 91.5402 160.29C91.761 159.679 91.9278 158.988 92.0309 158.22C92.1339 157.452 92.2075 156.609 92.237 155.689C92.2664 154.769 92.286 153.776 92.286 152.704C92.286 151.632 92.2713 150.634 92.237 149.718C92.2026 148.803 92.1388 147.961 92.0309 147.187ZM87.7666 154.73C87.7567 155.405 87.7273 156.037 87.6881 156.629C87.6438 157.222 87.585 157.745 87.4967 158.21C87.4132 158.676 87.3052 159.033 87.1776 159.282C87.05 159.537 86.8734 159.747 86.6378 159.914C86.4072 160.085 86.0785 160.168 85.6565 160.168C85.2345 160.168 84.9056 160.085 84.675 159.914C84.4444 159.747 84.2628 159.537 84.1352 159.282C84.0076 159.027 83.9046 158.67 83.8163 158.21C83.7279 157.75 83.669 157.222 83.6249 156.629C83.5807 156.037 83.5562 155.405 83.5464 154.73C83.5366 154.055 83.5316 153.384 83.5316 152.708C83.5316 152.034 83.5316 151.363 83.5464 150.687C83.5562 150.012 83.5807 149.38 83.6249 148.788C83.669 148.196 83.7279 147.673 83.8163 147.207C83.8997 146.742 84.0076 146.385 84.1352 146.136C84.2628 145.881 84.4395 145.67 84.675 145.504C84.9056 145.338 85.2345 145.249 85.6565 145.249C86.0785 145.249 86.4072 145.333 86.6378 145.504C86.8686 145.675 87.05 145.881 87.1776 146.136C87.3052 146.389 87.4084 146.747 87.4967 147.207C87.585 147.667 87.6438 148.196 87.6881 148.788C87.7322 149.38 87.7567 150.012 87.7666 150.687C87.7764 151.363 87.7812 152.034 87.7812 152.708C87.7812 153.384 87.7764 154.055 87.7666 154.73Z" fill="white"/>
<path d="M105.879 153.069C106.218 152.638 106.473 152.169 106.655 151.664C106.832 151.155 106.954 150.626 107.018 150.069C107.081 149.511 107.111 148.923 107.111 148.316C107.111 147.244 107.018 146.275 106.826 145.423C106.635 144.566 106.301 143.853 105.825 143.275C105.349 142.697 104.706 142.246 103.892 141.929C103.077 141.611 102.061 141.454 100.835 141.454H94.4012V163.964H98.9011V155.208H100.393L103.151 163.964H107.842L104.544 154.229C105.089 153.892 105.531 153.504 105.875 153.074L105.879 153.069ZM102.562 149.291C102.533 149.628 102.454 149.932 102.341 150.205C102.228 150.48 102.047 150.704 101.801 150.886C101.556 151.068 101.227 151.155 100.8 151.155H98.8963V145.497H100.8C101.222 145.497 101.556 145.58 101.801 145.752C102.047 145.922 102.223 146.143 102.341 146.417C102.459 146.692 102.533 146.995 102.562 147.333C102.591 147.671 102.611 147.998 102.611 148.312C102.611 148.624 102.596 148.953 102.562 149.291Z" fill="white"/>
<path d="M109.634 163.962H120.032V159.914H114.134V154.54H119.207V150.491H114.134V145.495H120.032V141.451H109.634V163.962Z" fill="white"/>
<path d="M82.5152 62.7066V53.9354C82.5152 52.5405 81.8577 51.8894 80.4935 51.8894H78.2705V64.7526H80.4935C81.8577 64.7526 82.5152 64.1065 82.5152 62.7066Z" fill="white"/>
<path d="M75.3071 93.8364L74.095 96.8418H76.4995L75.3071 93.8364Z" fill="white"/>
<path d="M118.514 35.7896H53.9602C48.6653 35.7896 46.7368 37.7083 46.7368 42.9112V106.336C46.7368 107.154 46.8841 108.622 47.149 109.248C47.414 109.875 47.6643 110.394 48.155 110.85C48.6653 111.324 49.5486 111.814 49.9706 112.01L84.1884 126.37C84.8165 126.635 85.5084 126.781 86.2346 126.781C86.9609 126.781 87.6528 126.635 88.2809 126.37L122.503 112.004C122.925 111.814 123.808 111.319 124.319 110.844C124.815 110.384 125.06 109.871 125.325 109.243C125.59 108.617 125.738 107.148 125.738 106.332V42.9112C125.738 37.7083 123.804 35.7896 118.514 35.7896ZM90.3567 47.2039H95.7594V82.0929H90.3567V47.2039ZM90.6364 90.4384H93.7769V101.011H90.818V94.9365L88.0748 99.0774H88.016L85.2875 94.9708V101.016H82.3777V90.4432H85.5182L88.0748 94.5351L90.6364 90.4432V90.4384ZM72.8724 47.2039H81.3569C85.7488 47.2039 87.9227 49.3478 87.9227 53.6844V62.9549C87.9227 67.2915 85.7538 69.4354 81.3569 69.4354H78.2752V82.0929H72.8724V47.2039ZM58.146 47.2039H70.1637V52.0398H63.5488V61.9123H69.9085V66.7482H63.5488V77.2668H70.2667V82.1028H58.146V47.2088V47.2039ZM68.3824 99.6011C67.8082 100.066 67.136 100.453 66.3606 100.766C65.5852 101.079 64.7069 101.236 63.7254 101.236C62.8863 101.236 62.111 101.099 61.4044 100.83C60.6928 100.556 60.0794 100.179 59.5592 99.699C59.0391 99.2145 58.6269 98.6418 58.3325 97.9712C58.0381 97.3055 57.8908 96.5665 57.8908 95.7735V95.7442C57.8908 94.9708 58.0381 94.2464 58.3276 93.5857C58.6171 92.92 59.0194 92.3374 59.5298 91.8431C60.0402 91.3439 60.6486 90.9571 61.3602 90.6733C62.0718 90.3943 62.8372 90.2524 63.6666 90.2524C64.6186 90.2524 65.4381 90.3894 66.125 90.6586C66.8121 90.9327 67.4451 91.3095 68.0192 91.7892L66.2723 93.8598C65.8846 93.5367 65.4871 93.292 65.0847 93.1206C64.6824 92.9493 64.2112 92.8612 63.6812 92.8612C63.2937 92.8612 62.9353 92.9346 62.6017 93.0864C62.268 93.2381 61.9834 93.4437 61.7381 93.708C61.4927 93.9674 61.3013 94.2758 61.159 94.6282C61.0167 94.9806 60.9431 95.3574 60.9431 95.7588V95.7882C60.9431 96.2091 61.0167 96.6057 61.159 96.9629C61.3013 97.3251 61.5074 97.6334 61.7626 97.8929C62.0226 98.1523 62.3318 98.353 62.6802 98.4999C63.0336 98.6467 63.4212 98.7201 63.853 98.7201C64.5499 98.7201 65.1191 98.5732 65.5705 98.2845V97.0021H63.4556V94.8484H68.3872V99.6109L68.3824 99.6011ZM69.3294 101.011L73.898 90.3601H76.7638L81.3324 101.011H78.1477L77.3625 99.1214H73.2258L72.4602 101.011H69.3294ZM99.2779 112.714C99.2632 112.748 99.2436 112.778 99.219 112.802C99.1945 112.826 99.165 112.846 99.1307 112.861L86.642 118.103C86.5094 118.162 86.3622 118.191 86.2052 118.191C86.0482 118.191 85.9059 118.162 85.7685 118.103L73.3779 112.861C73.3435 112.846 73.3141 112.826 73.2895 112.802C73.265 112.778 73.2453 112.748 73.2306 112.714C73.2159 112.68 73.211 112.645 73.211 112.606C73.211 112.567 73.2208 112.533 73.2306 112.499C73.2453 112.464 73.265 112.435 73.2895 112.411C73.3141 112.386 73.3435 112.366 73.3779 112.352C73.4122 112.337 73.4466 112.332 73.4859 112.332H99.0129C99.0522 112.332 99.0865 112.342 99.1209 112.352C99.1552 112.366 99.1847 112.386 99.2092 112.411C99.2338 112.435 99.2533 112.464 99.2681 112.499C99.2828 112.533 99.2878 112.567 99.2878 112.606C99.2878 112.645 99.2779 112.68 99.2681 112.714H99.2779ZM104.47 101.011H95.7644V90.4384H104.391V92.9346H98.7038V94.5351H103.851V96.8454H98.7038V98.5243H104.465V101.016L104.47 101.011ZM98.6154 75.911V53.3809C98.6154 49.0443 100.789 46.9004 105.181 46.9004H107.806C112.199 46.9004 114.319 48.9953 114.319 53.332V60.4586H109.019V53.6306C109.019 52.2356 108.361 51.5846 106.997 51.5846H106.089C104.676 51.5846 104.018 52.2307 104.018 53.6306V75.6614C104.018 77.0564 104.676 77.7073 106.089 77.7073H107.1C108.464 77.7073 109.122 77.0612 109.122 75.6614V67.7859H114.426V75.911C114.426 80.2477 112.258 82.3915 107.861 82.3915H105.186C100.794 82.3915 98.6204 80.2477 98.6204 75.911H98.6154ZM114.627 97.7559C114.627 98.2991 114.524 98.7838 114.314 99.2047C114.102 99.6257 113.808 99.9879 113.43 100.286C113.053 100.585 112.601 100.81 112.066 100.967C111.536 101.123 110.942 101.202 110.289 101.202C109.327 101.202 108.415 101.055 107.557 100.766C106.698 100.477 105.927 100.037 105.265 99.4494L106.918 97.5013C107.993 98.3481 109.152 98.769 110.398 98.769C110.795 98.769 111.099 98.7054 111.31 98.5782C111.521 98.4509 111.624 98.2747 111.624 98.0398V98.0104C111.624 97.8978 111.595 97.7999 111.546 97.7167C111.497 97.6286 111.399 97.5503 111.261 97.467C111.124 97.3839 110.938 97.3055 110.712 97.2321C110.481 97.1587 110.186 97.0804 109.814 96.9972C109.24 96.865 108.709 96.7231 108.219 96.5665C107.728 96.4099 107.301 96.2091 106.938 95.9595C106.575 95.7148 106.29 95.4064 106.079 95.0393C105.868 94.6722 105.765 94.2121 105.765 93.6738V93.6444C105.765 93.15 105.859 92.6997 106.049 92.2837C106.241 91.8675 106.516 91.5151 106.879 91.2117C107.242 90.9083 107.679 90.6733 108.189 90.5069C108.7 90.3405 109.279 90.2572 109.922 90.2572C110.839 90.2572 111.663 90.3747 112.38 90.6146C113.097 90.8544 113.749 91.2019 114.333 91.6669L112.846 93.7373C112.356 93.3947 111.855 93.1353 111.335 92.9591C110.82 92.7829 110.319 92.6948 109.843 92.6948C109.485 92.6948 109.215 92.7633 109.038 92.8906C108.862 93.0227 108.768 93.1843 108.768 93.3751V93.4045C108.768 93.5269 108.798 93.6297 108.852 93.7227C108.91 93.8108 109.004 93.8989 109.141 93.9723C109.279 94.0458 109.47 94.1241 109.71 94.1974C109.95 94.2709 110.256 94.3491 110.623 94.4324C111.237 94.5645 111.792 94.7163 112.287 94.8925C112.782 95.0687 113.204 95.2841 113.553 95.5336C113.901 95.7833 114.166 96.0868 114.347 96.449C114.535 96.8063 114.623 97.2321 114.623 97.7265V97.7559H114.627Z" fill="white"/>
</g>
<defs>
<clipPath id="clip0_3146_6514">
<rect width="522.105" height="200" fill="white" transform="translate(0.421143)"/>
</clipPath>
</defs>
</svg>
