
<svg width="400" height="84" viewBox="0 0 400 84" fill="none" xmlns="http://www.w3.org/2000/svg">
<rect x="1" y="1" width="398" height="82" rx="9" fill="black" stroke="#A6A6A6" stroke-width="2"/>
<path d="M87.435 27.5V14.97H91.845C92.65 14.97 93.3733 15.1392 94.015 15.4775C94.6567 15.8042 95.1642 16.265 95.5375 16.86C95.9225 17.455 96.115 18.1433 96.115 18.925C96.115 19.7067 95.9225 20.4008 95.5375 21.0075C95.1642 21.6025 94.6567 22.0692 94.015 22.4075C93.3733 22.7342 92.65 22.8975 91.845 22.8975H89.7975V27.5H87.435ZM89.7975 20.6575H91.915C92.3233 20.6575 92.6675 20.5758 92.9475 20.4125C93.2275 20.2492 93.4375 20.0392 93.5775 19.7825C93.7175 19.5142 93.7875 19.2283 93.7875 18.925C93.7875 18.6217 93.7175 18.3417 93.5775 18.085C93.4375 17.8283 93.2275 17.6183 92.9475 17.455C92.6675 17.2917 92.3233 17.21 91.915 17.21H89.7975V20.6575ZM97.9412 27.5V14.97H100.304V25.26H105.606V27.5H97.9412ZM106.232 27.5L110.922 14.97H113.635L118.342 27.5H115.735L114.685 24.5075H109.89L108.84 27.5H106.232ZM113.915 22.3375L112.812 19.1875L112.357 17.6825H112.217L111.762 19.1875L110.66 22.3375H113.915ZM121.417 27.5V21.6725L117.2 14.97H120.017L122.52 19.1525H122.66L125.075 14.97H127.927L123.78 21.6725V27.5H121.417ZM138.925 27.78C137.992 27.78 137.123 27.6167 136.318 27.29C135.524 26.9517 134.83 26.485 134.235 25.89C133.652 25.2833 133.197 24.5833 132.87 23.79C132.544 22.9967 132.38 22.145 132.38 21.235C132.38 20.325 132.544 19.4733 132.87 18.68C133.197 17.8867 133.652 17.1925 134.235 16.5975C134.83 15.9908 135.524 15.5242 136.318 15.1975C137.123 14.8592 137.992 14.69 138.925 14.69C139.859 14.69 140.722 14.8592 141.515 15.1975C142.309 15.5242 143.003 15.9908 143.598 16.5975C144.193 17.1925 144.654 17.8867 144.98 18.68C145.307 19.4733 145.47 20.325 145.47 21.235C145.47 22.145 145.307 22.9967 144.98 23.79C144.654 24.5833 144.193 25.2833 143.598 25.89C143.003 26.485 142.309 26.9517 141.515 27.29C140.722 27.6167 139.859 27.78 138.925 27.78ZM138.925 25.54C139.707 25.54 140.413 25.3592 141.043 24.9975C141.673 24.6358 142.174 24.1342 142.548 23.4925C142.921 22.8392 143.108 22.0867 143.108 21.235C143.108 20.3717 142.921 19.6192 142.548 18.9775C142.174 18.3358 141.673 17.8342 141.043 17.4725C140.413 17.1108 139.707 16.93 138.925 16.93C138.155 16.93 137.455 17.1108 136.825 17.4725C136.195 17.8342 135.694 18.3358 135.32 18.9775C134.947 19.6192 134.76 20.3717 134.76 21.235C134.76 22.0867 134.947 22.8392 135.32 23.4925C135.694 24.1342 136.195 24.6358 136.825 24.9975C137.455 25.3592 138.155 25.54 138.925 25.54ZM147.532 27.5V14.97H150.28L155.32 23.37H155.46L155.32 20.955V14.97H157.665V27.5H155.18L149.86 18.6275H149.72L149.86 21.0425V27.5H147.532ZM164.289 27.5V14.97H168.699C169.504 14.97 170.228 15.1392 170.869 15.4775C171.511 15.8042 172.019 16.265 172.392 16.86C172.777 17.455 172.969 18.1433 172.969 18.925C172.969 19.7067 172.777 20.4008 172.392 21.0075C172.019 21.6025 171.511 22.0692 170.869 22.4075C170.228 22.7342 169.504 22.8975 168.699 22.8975H166.652V27.5H164.289ZM166.652 20.6575H168.769C169.178 20.6575 169.522 20.5758 169.802 20.4125C170.082 20.2492 170.292 20.0392 170.432 19.7825C170.572 19.5142 170.642 19.2283 170.642 18.925C170.642 18.6217 170.572 18.3417 170.432 18.085C170.292 17.8283 170.082 17.6183 169.802 17.455C169.522 17.2917 169.178 17.21 168.769 17.21H166.652V20.6575ZM180.608 27.78C179.687 27.78 178.823 27.6167 178.018 27.29C177.225 26.9517 176.531 26.485 175.936 25.89C175.341 25.295 174.874 24.6008 174.536 23.8075C174.209 23.0142 174.046 22.1567 174.046 21.235C174.046 20.3133 174.209 19.4558 174.536 18.6625C174.874 17.8692 175.341 17.175 175.936 16.58C176.531 15.985 177.225 15.5242 178.018 15.1975C178.823 14.8592 179.687 14.69 180.608 14.69C181.273 14.69 181.886 14.7717 182.446 14.935C183.006 15.0867 183.519 15.3142 183.986 15.6175C184.464 15.9208 184.902 16.2942 185.298 16.7375L183.636 18.3475C183.391 18.0558 183.117 17.805 182.813 17.595C182.522 17.385 182.195 17.2217 181.833 17.105C181.472 16.9883 181.069 16.93 180.626 16.93C179.844 16.93 179.133 17.1108 178.491 17.4725C177.861 17.8225 177.359 18.3183 176.986 18.96C176.613 19.6017 176.426 20.36 176.426 21.235C176.426 22.0983 176.613 22.8567 176.986 23.51C177.359 24.1517 177.861 24.6533 178.491 25.015C179.133 25.365 179.844 25.54 180.626 25.54C181.093 25.54 181.524 25.4758 181.921 25.3475C182.318 25.2192 182.679 25.0325 183.006 24.7875C183.344 24.5308 183.653 24.2333 183.933 23.895L185.613 25.4875C185.205 25.9775 184.744 26.3975 184.231 26.7475C183.718 27.0858 183.158 27.3425 182.551 27.5175C181.944 27.6925 181.297 27.78 180.608 27.78Z" fill="white"/>
<path d="M208.822 53.0286V62.901H205.728V38.5884H213.979C216.042 38.5884 217.81 39.3251 219.284 40.6513C220.757 41.9774 221.494 43.7456 221.494 45.8085C221.494 47.8714 220.757 49.6396 219.284 50.9657C217.81 52.2919 216.042 53.0286 213.979 53.0286H208.822ZM208.822 41.5354V50.0816H213.979C215.158 50.0816 216.189 49.6396 217.073 48.7555C217.958 47.8714 218.4 46.9873 218.4 45.8085C218.4 44.6297 217.958 43.7456 217.073 42.8615C216.189 41.9774 215.305 41.5354 213.979 41.5354H208.822Z" fill="white" stroke="white" stroke-width="0.210499"/>
<path d="M227.093 38.5884V62.901H223.999V38.5884H227.093Z" fill="white" stroke="white" stroke-width="0.210499"/>
<path d="M236.965 45.6611C239.323 45.6611 241.091 46.2505 242.417 47.4293C243.743 48.6081 244.48 50.3763 244.48 52.4392V62.6063H241.533V60.2487H241.386C240.06 62.1643 238.439 63.0484 236.229 63.0484C234.46 63.0484 232.84 62.459 231.661 61.4275C230.482 60.3961 229.893 58.9226 229.893 57.3017C229.893 55.5335 230.482 54.2074 231.808 53.176C233.134 52.1445 234.902 51.7025 236.965 51.7025C238.881 51.7025 240.354 51.9972 241.533 52.7339V51.9972C241.533 50.9657 241.091 49.9343 240.207 49.1975C239.323 48.4608 238.292 48.0187 237.113 48.0187C235.345 48.0187 234.018 48.7555 232.987 50.229L230.187 48.4608C231.661 46.8399 234.018 45.6611 236.965 45.6611ZM232.84 57.7438C232.84 58.4805 233.134 59.2173 233.871 59.8067C234.608 60.3961 235.345 60.5434 236.229 60.5434C237.555 60.5434 238.734 60.1014 239.765 59.0699C240.796 58.0385 241.386 57.007 241.386 55.6809C240.354 54.9441 239.028 54.5021 237.26 54.5021C235.934 54.5021 234.902 54.7968 234.166 55.3862C233.282 56.1229 232.84 56.8597 232.84 57.7438Z" fill="white" stroke="white" stroke-width="0.210499"/>
<path d="M261.868 46.2505L251.406 70.1211H248.165L251.996 61.7222L245.218 46.2505H248.607L253.617 58.1858H253.764L258.627 46.2505H261.868Z" fill="white" stroke="white" stroke-width="0.210499"/>
<path d="M294.726 51.7024C294.726 55.0914 293.695 57.7437 291.632 59.8066C289.422 62.1642 286.327 63.343 282.644 63.343C279.107 63.343 276.16 62.1642 273.655 59.6593C271.15 57.1543 269.972 54.2073 269.972 50.671C269.972 47.1346 271.15 44.0402 273.655 41.6826C276.16 39.1777 279.107 37.9989 282.644 37.9989C284.412 37.9989 286.18 38.2936 287.654 38.883C289.274 39.4724 290.601 40.3565 291.485 41.5353L289.274 43.7455C288.538 42.8614 287.506 42.1247 286.327 41.6826C285.149 41.2406 283.823 40.9459 282.496 40.9459C279.844 40.9459 277.634 41.83 275.718 43.7455C273.95 45.6611 273.066 47.8713 273.066 50.671C273.066 53.4706 273.95 55.8282 275.718 57.5964C277.486 59.3646 279.844 60.396 282.496 60.396C284.854 60.396 286.917 59.6593 288.538 58.3331C290.159 57.007 291.043 55.0914 291.337 52.7339H282.496V49.7869H294.284C294.579 50.5236 294.726 51.113 294.726 51.7024Z" fill="white"/>
<path d="M303.863 45.6611C306.22 45.6611 307.989 46.2505 309.315 47.4293C310.641 48.6081 311.378 50.3763 311.378 52.4392V62.6063H308.431V60.2487H308.283C306.957 62.1643 305.336 63.0484 303.126 63.0484C301.358 63.0484 299.737 62.459 298.558 61.4275C297.379 60.3961 296.79 58.9226 296.79 57.3017C296.79 55.5335 297.379 54.2074 298.706 53.176C300.032 52.1445 301.8 51.7025 303.863 51.7025C305.778 51.7025 307.252 51.9972 308.431 52.7339V51.9972C308.431 50.9657 307.989 49.9343 307.105 49.1975C306.22 48.4608 305.189 48.0187 304.01 48.0187C302.242 48.0187 300.916 48.7555 299.884 50.229L297.085 48.4608C298.706 46.8399 300.916 45.6611 303.863 45.6611ZM299.884 57.7438C299.884 58.4805 300.179 59.2173 300.916 59.8067C301.653 60.3961 302.389 60.5434 303.273 60.5434C304.6 60.5434 305.778 60.1014 306.81 59.0699C307.841 58.0385 308.431 57.007 308.431 55.6809C307.399 54.9441 306.073 54.5021 304.305 54.5021C302.979 54.5021 301.947 54.7968 301.211 55.3862C300.179 56.1229 299.884 56.8597 299.884 57.7438Z" fill="white"/>
<path d="M317.861 62.901H314.767V46.2505H317.714V48.6081H317.861C318.303 47.724 319.04 47.1346 320.071 46.5452C321.103 45.9558 321.987 45.6611 323.018 45.6611C324.197 45.6611 325.376 45.9558 326.26 46.5452C327.144 47.1346 327.881 47.8714 328.323 48.9028C329.649 46.8399 331.564 45.6611 334.069 45.6611C335.985 45.6611 337.458 46.2505 338.49 47.4293C339.521 48.6081 340.111 50.229 340.111 52.4392V62.7537H337.016V52.8813C337.016 51.2604 336.722 50.229 336.132 49.4922C335.543 48.7555 334.659 48.4608 333.333 48.4608C332.154 48.4608 331.122 48.9028 330.238 49.9343C329.354 50.9657 329.059 52.1445 329.059 53.4707V62.6063H325.965V52.7339C325.965 51.1131 325.67 50.0816 325.081 49.3449C324.492 48.6081 323.608 48.3134 322.281 48.3134C321.103 48.3134 320.071 48.7555 319.187 49.7869C318.303 50.8184 318.008 51.9972 318.008 53.3233L317.861 62.901Z" fill="white"/>
<path d="M350.867 63.3431C348.362 63.3431 346.446 62.459 344.825 60.8381C343.205 59.2173 342.468 57.007 342.468 54.5021C342.468 51.9972 343.205 49.9343 344.825 48.1661C346.446 46.3979 348.362 45.6611 350.719 45.6611C353.224 45.6611 355.14 46.3979 356.613 48.0187C358.087 49.6396 358.824 51.8498 358.824 54.6495V54.9441H345.709C345.709 56.565 346.299 57.8911 347.33 58.9226C348.362 59.954 349.688 60.3961 351.014 60.3961C353.077 60.3961 354.55 59.3646 355.729 57.4491L358.529 58.7752C357.792 60.2487 356.761 61.2802 355.435 62.0169C353.961 63.0484 352.488 63.3431 350.867 63.3431ZM345.857 52.5866H355.435C355.287 51.4078 354.845 50.5237 353.961 49.7869C353.077 49.0502 351.898 48.6081 350.572 48.6081C349.393 48.6081 348.362 48.9028 347.478 49.6396C346.594 50.3763 346.152 51.2604 345.857 52.5866Z" fill="white"/>
<path d="M374.001 58.1858C374.001 59.6593 373.412 60.8381 372.086 61.8696C370.76 62.901 369.286 63.3431 367.371 63.3431C365.75 63.3431 364.276 62.901 362.95 62.0169C361.624 61.1328 360.74 59.954 360.298 58.6279L363.098 57.4491C363.54 58.4805 364.129 59.2173 364.866 59.8067C365.602 60.3961 366.487 60.6908 367.371 60.6908C368.402 60.6908 369.139 60.5434 369.876 60.1014C370.612 59.6593 370.907 59.2173 370.907 58.6279C370.907 57.5964 370.023 56.8597 368.402 56.2703L365.602 55.5335C362.361 54.7968 360.74 53.1759 360.74 50.8184C360.74 49.3449 361.329 48.0187 362.508 47.1346C363.687 46.2505 365.308 45.8085 367.223 45.8085C368.697 45.8085 370.023 46.1032 371.202 46.8399C372.381 47.5767 373.265 48.4608 373.707 49.6396L370.907 50.8184C370.612 50.0816 370.023 49.4922 369.286 49.1975C368.549 48.7555 367.813 48.6081 366.929 48.6081C366.044 48.6081 365.308 48.7555 364.718 49.1975C364.129 49.6396 363.687 50.0816 363.687 50.671C363.687 51.5551 364.571 52.2918 366.339 52.7339L368.844 53.3233C372.381 54.06 374.001 55.6809 374.001 58.1858Z" fill="white"/>
<path d="M98.8966 63.3429C91.2345 63.3429 84.8984 57.1542 84.8984 49.6394C84.8984 42.1246 91.2345 35.9359 98.8966 35.9359C103.022 35.9359 106.117 37.5568 108.327 39.767L105.675 42.4193C104.054 40.9458 101.844 39.767 98.8966 39.767C93.2974 39.767 89.0242 44.1875 89.0242 49.7868C89.0242 55.386 93.2974 59.8065 98.8966 59.8065C102.433 59.8065 104.496 58.333 105.822 57.0069C106.854 55.9754 107.59 54.3546 107.885 52.2917H98.8966V48.608H111.569C111.716 49.3447 111.716 50.0815 111.716 50.9656C111.716 53.7652 110.979 57.3016 108.474 59.8065C106.117 62.0168 103.022 63.3429 98.8966 63.3429Z" fill="white"/>
<path d="M131.314 54.502C131.314 59.6592 127.336 63.3429 122.62 63.3429C117.758 63.3429 113.927 59.6592 113.927 54.502C113.927 49.3447 117.905 45.661 122.62 45.661C127.483 45.661 131.314 49.3447 131.314 54.502ZM127.483 54.502C127.483 51.2603 125.125 49.1974 122.62 49.1974C120.115 49.1974 117.758 51.4076 117.758 54.502C117.758 57.5963 120.115 59.8066 122.62 59.8066C125.125 59.8066 127.483 57.7437 127.483 54.502Z" fill="white"/>
<path d="M150.912 54.502C150.912 59.6592 146.933 63.3429 142.218 63.3429C137.503 63.3429 133.524 59.6592 133.524 54.502C133.524 49.3447 137.503 45.661 142.218 45.661C147.081 45.661 150.912 49.3447 150.912 54.502ZM147.081 54.502C147.081 51.2603 144.723 49.1974 142.218 49.1974C139.566 49.1974 137.355 51.4076 137.355 54.502C137.355 57.5963 139.713 59.8066 142.218 59.8066C144.87 59.9539 147.081 57.7437 147.081 54.502Z" fill="white"/>
<path d="M170.066 46.2504V62.1642C170.066 68.6475 166.235 71.2998 161.667 71.2998C157.394 71.2998 154.742 68.3528 153.858 66.1426L157.247 64.6691C157.836 66.1426 159.31 67.7634 161.667 67.7634C164.614 67.7634 166.382 65.9952 166.382 62.6062V61.2801H166.235C165.351 62.3115 163.73 63.3429 161.52 63.3429C157.099 63.3429 152.974 59.5119 152.974 54.502C152.974 49.4921 157.099 45.661 161.52 45.661C163.583 45.661 165.351 46.5451 166.235 47.5766H166.382V46.1031L170.066 46.2504ZM166.677 54.502C166.677 51.4076 164.614 49.05 161.962 49.05C159.31 49.05 157.099 51.2603 157.099 54.502C157.099 57.5963 159.31 59.8066 161.962 59.8066C164.614 59.9539 166.677 57.5963 166.677 54.502Z" fill="white"/>
<path d="M176.845 36.8201V62.7536H172.866V36.8201H176.845Z" fill="white"/>
<path d="M192.169 57.449L195.263 59.5119C194.232 60.9853 191.874 63.4903 187.896 63.4903C182.886 63.4903 179.202 59.6592 179.202 54.6493C179.202 49.3447 182.886 45.8083 187.454 45.8083C192.022 45.8083 194.379 49.4921 195.116 51.4076L195.558 52.4391L183.623 57.3016C184.507 59.0698 185.98 59.9539 187.896 59.9539C189.811 59.9539 191.285 58.9225 192.169 57.449ZM182.886 54.2073L190.843 50.9656C190.401 49.7868 189.075 49.05 187.601 49.05C185.538 49.1974 182.739 50.8182 182.886 54.2073Z" fill="white"/>
<path d="M29.6001 42.3286C29.6001 43.8714 28.2286 45.2429 26.6858 45.2429C25.1429 45.2429 23.7715 43.8714 23.7715 42.3286C23.7715 40.7857 25.1429 39.4143 26.6858 39.4143C28.2286 39.5857 29.6001 40.7857 29.6001 42.3286Z" fill="#28FEAF"/>
<path d="M34.9145 47.8143C34.9145 49.3572 33.5431 50.7286 32.0002 50.7286C30.4574 50.7286 29.0859 49.5286 29.0859 47.8143C29.0859 46.2715 30.4574 44.9 32.0002 44.9C33.7145 45.0715 34.9145 46.2715 34.9145 47.8143Z" fill="#28FEAF"/>
<path d="M34.9145 36.8429C34.9145 38.3857 33.5431 39.7572 32.0002 39.7572C30.4574 39.7572 29.0859 38.3857 29.0859 36.8429C29.0859 35.3 30.4574 33.9286 32.0002 33.9286C33.7145 34.1 34.9145 35.3 34.9145 36.8429Z" fill="#28FEAF"/>
<path d="M40.5708 42.3286C40.5708 43.8714 39.1993 45.2429 37.6565 45.2429C36.1136 45.2429 34.7422 43.8714 34.7422 42.3286C34.7422 40.7857 36.1136 39.4143 37.6565 39.4143C39.1993 39.5857 40.5708 40.7857 40.5708 42.3286Z" fill="#28FEAF"/>
<path d="M40.7428 62.5571L29.4285 69.0714C25.3142 71.4713 20.3428 68.5571 20.3428 63.7571V53.8142H32.1713L40.7428 62.5571Z" fill="#28FEAF"/>
<path d="M66.4571 47.643L49.9999 57.243L46.9142 39.243C46.0571 34.443 41.9428 31.0144 37.1428 31.0144H20.3428V21.0715C20.3428 16.443 25.4856 13.5287 29.4285 15.7572L66.4571 37.1858C70.5713 39.4144 70.5713 45.243 66.4571 47.643Z" fill="#28FEAF"/>
</svg>
