
<svg viewBox="0 0 337 100" fill="none" xmlns="http://www.w3.org/2000/svg"><path d="M324.516 100H12.484C5.618 100 0 94.373 0 87.498V12.502C0 5.627 5.618 0 12.484 0h312.032C331.382 0 337 5.627 337 12.502v74.996c0 6.875-5.618 12.502-12.484 12.502Z" fill="#12100B"/><path d="M324.516 2c5.781 0 10.486 4.713 10.486 10.502v74.996c0 5.789-4.705 10.501-10.486 10.501H12.484c-5.78 0-10.486-4.712-10.486-10.501V12.502c0-5.794 4.7-10.501 10.486-10.501h312.032Zm0-2H12.484C5.618 0 0 5.627 0 12.502v74.996C0 94.373 5.618 100 12.484 100h312.032C331.382 100 337 94.373 337 87.498V12.502C337 5.627 331.382 0 324.516 0Z" fill="#AFACAB"/><path d="M170.086 54.376c-5.869 0-10.658 4.471-10.658 10.636 0 6.165 4.784 10.632 10.658 10.632s10.658-4.514 10.658-10.632c0-6.117-4.784-10.636-10.658-10.636Zm0 17.078c-3.219 0-5.994-2.66-5.994-6.442s2.775-6.447 5.994-6.447 5.989 2.618 5.989 6.447c0 3.83-2.776 6.442-5.989 6.442Zm-23.251-17.078c-5.869 0-10.658 4.471-10.658 10.636 0 6.165 4.784 10.632 10.658 10.632s10.658-4.514 10.658-10.632c0-6.117-4.789-10.636-10.658-10.636Zm0 17.078c-3.214 0-5.989-2.66-5.989-6.442s2.775-6.447 5.989-6.447c3.213 0 5.994 2.618 5.994 6.447 0 3.83-2.775 6.442-5.994 6.442Zm-27.654-13.813v4.508h10.778c-.324 2.54-1.163 4.389-2.452 5.68-1.57 1.572-4.022 3.301-8.326 3.301-6.636 0-11.826-5.355-11.826-12 0-6.646 5.185-12 11.826-12 3.579 0 6.192 1.405 8.123 3.217l3.177-3.181c-2.697-2.576-6.276-4.55-11.3-4.55-9.087 0-16.73 7.413-16.73 16.514 0 9.1 7.643 16.514 16.73 16.514 4.904 0 8.603-1.614 11.503-4.634 2.974-2.978 3.902-7.168 3.902-10.553 0-1.045-.078-2.012-.24-2.816h-15.165Zm113.104 3.5c-.887-2.377-3.579-6.765-9.088-6.765-5.509 0-10.011 4.31-10.011 10.636 0 5.961 4.502 10.632 10.533 10.632 4.867 0 7.679-2.978 8.848-4.713l-3.621-2.418c-1.21 1.77-2.853 2.941-5.227 2.941s-4.064-1.087-5.149-3.218l14.195-5.883-.48-1.207v-.005Zm-14.477 3.547c-.12-4.111 3.177-6.201 5.551-6.201 1.852 0 3.422.925 3.944 2.257l-9.489 3.95-.006-.006Zm-11.544 10.308h4.664V43.744h-4.664v31.252Zm-7.643-18.243h-.161c-1.044-1.25-3.057-2.377-5.587-2.377-5.311 0-10.173 4.67-10.173 10.673s4.867 10.59 10.173 10.59c2.535 0 4.543-1.129 5.587-2.42h.161v1.532c0 4.07-2.17 6.243-5.67 6.243-2.854 0-4.627-2.053-5.347-3.783l-4.064 1.693c1.163 2.821 4.262 6.285 9.411 6.285 5.467 0 10.094-3.224 10.094-11.076v-19.09h-4.424v1.735-.006Zm-5.347 14.701c-3.219 0-5.91-2.696-5.91-6.4s2.691-6.483 5.91-6.483c3.219 0 5.671 2.737 5.671 6.483 0 3.746-2.494 6.4-5.671 6.4Zm60.864-27.705h-11.159v31.252h4.653V63.163h6.506c5.164 0 10.235-3.746 10.235-9.707s-5.076-9.707-10.235-9.707Zm.12 15.062h-6.626V48.096h6.626c3.484 0 5.462 2.889 5.462 5.355 0 2.466-1.978 5.355-5.462 5.355m28.785-4.488c-3.37 0-6.865 1.489-8.31 4.78l4.137 1.73c.882-1.73 2.53-2.294 4.257-2.294 2.41 0 4.857 1.447 4.898 4.018v.324c-.845-.481-2.65-1.207-4.856-1.207-4.455 0-8.994 2.45-8.994 7.037 0 4.185 3.657 6.875 7.747 6.875 3.135 0 4.857-1.405 5.942-3.056h.161v2.414h4.497V62.954c0-5.548-4.131-8.641-9.473-8.641m-.564 17.125c-1.528 0-3.657-.763-3.657-2.654 0-2.413 2.65-3.333 4.941-3.333 2.045 0 3.01.444 4.256 1.045-.36 2.894-2.848 4.948-5.54 4.948m26.418-16.447-5.342 13.552h-.162l-5.54-13.552h-5.019l8.311 18.939-4.737 10.532h4.857l12.807-29.47h-5.18.005ZM266.95 74.991h4.658V43.739h-4.658V74.99Z" fill="#fff"/><path d="M51.718 48.56 25.14 76.81v.016a7.173 7.173 0 0 0 6.933 5.323c1.33 0 2.572-.36 3.642-.987l.083-.052 29.917-17.29-14.002-15.265.005.006Z" fill="#EA4335"/><path d="m78.606 43.749-.027-.016-12.916-7.497-14.55 12.967 14.602 14.618 12.844-7.424a7.202 7.202 0 0 0 3.782-6.337 7.165 7.165 0 0 0-3.74-6.311" fill="#FBBC04"/><path d="M25.14 23.191a6.996 6.996 0 0 0-.246 1.85V74.96c0 .642.084 1.259.245 1.849l27.487-27.527L25.14 23.19Z" fill="#4285F4"/><path d="M51.912 50.003 65.668 36.23 35.787 18.88a7.167 7.167 0 0 0-3.71-1.03c-3.317 0-6.119 2.263-6.938 5.335v.005l26.778 26.812h-.005Z" fill="#34A853"/><path d="M107.511 32.114a7.733 7.733 0 0 1-2.921-2.936c-.709-1.248-1.064-2.623-1.064-4.132 0-1.51.355-2.884 1.064-4.133a7.733 7.733 0 0 1 2.921-2.936c1.237-.71 2.609-1.066 4.116-1.066 2.332 0 4.252.847 5.754 2.544l-1.669 1.63c-.537-.637-1.132-1.117-1.789-1.436-.658-.319-1.414-.48-2.27-.48-1.059 0-2.018.24-2.89.725a5.383 5.383 0 0 0-2.065 2.07c-.506.893-.762 1.917-.762 3.076 0 1.16.256 2.184.762 3.078a5.269 5.269 0 0 0 2.065 2.063c.866.486 1.831.732 2.89.732 1.769 0 3.25-.732 4.45-2.2l1.717 1.651a8.002 8.002 0 0 1-2.713 2.069c-1.059.491-2.217.742-3.474.742-1.508 0-2.88-.355-4.116-1.066l-.006.005Zm12.974-14.853h2.39v7.55h.13l6.192-7.55h3v.13l-6.558 7.785 6.907 7.523v.131h-3.13l-6.406-7.136h-.13v7.136h-2.389V17.256l-.006.005Zm19.417 0h2.713l5.884 15.574h-2.629l-1.435-4.002h-6.343l-1.435 4.002h-2.629l5.864-15.574h.01Zm3.756 9.352-1.737-4.775-.584-1.782h-.131l-.584 1.782-1.737 4.775h4.778-.005Zm13.835-.716c-.971.857-2.165 1.285-3.584 1.285-.939 0-1.789-.193-2.551-.574a4.292 4.292 0 0 1-1.789-1.662c-.433-.726-.653-1.577-.653-2.565v-5.11h2.411v4.697c0 .94.276 1.672.824 2.184.548.517 1.288.773 2.217.773 1.257 0 2.3-.49 3.13-1.478v-6.175h2.368v15.574h-2.368v-6.938l-.005-.01Zm10.334-8.636h2.713l5.884 15.574h-2.629l-1.435-4.002h-6.343l-1.435 4.002h-2.629l5.864-15.574h.01Zm3.756 9.352-1.737-4.775-.584-1.782h-.131l-.584 1.782-1.737 4.775h4.778-.005Zm8.884-7.09h-4.366v-2.262h11.096v2.262h-4.346v13.312h-2.389V19.523h.005Zm9.208-2.262h2.389v5.549h3.302c.97 0 1.868.198 2.692.6a4.797 4.797 0 0 1 1.977 1.74c.49.763.736 1.651.736 2.665 0 1.013-.246 1.901-.736 2.664a4.86 4.86 0 0 1-1.977 1.75 5.99 5.99 0 0 1-2.692.611h-5.691V17.261Zm5.863 13.333c.564 0 1.064-.13 1.497-.392.433-.261.767-.606.997-1.034.229-.429.349-.883.349-1.359 0-.475-.114-.93-.349-1.358a2.772 2.772 0 0 0-.997-1.045 2.802 2.802 0 0 0-1.497-.402h-3.474v5.59h3.474Zm12.927-13.333h2.369v8.615l-.131 3.004h.131l6.969-11.613h2.713V32.84h-2.368v-8.829l.13-3.004h-.13l-7.08 11.833h-2.608V17.267l.005-.006Zm16.73 14.921c-.975-.669-1.648-1.65-2.008-2.957l2.191-.872c.188.81.553 1.452 1.095 1.912.543.465 1.185.695 1.92.695.798 0 1.476-.251 2.04-.753.563-.501.845-1.118.845-1.86 0-.48-.136-.914-.412-1.316a2.873 2.873 0 0 0-1.127-.946 3.56 3.56 0 0 0-1.565-.35h-1.283v-2.09h1.153c.782 0 1.434-.214 1.956-.642.522-.428.782-1.003.782-1.73 0-.637-.24-1.164-.725-1.587-.485-.419-1.09-.633-1.815-.633-.652 0-1.2.199-1.649.585a3.092 3.092 0 0 0-.933 1.39l-2.108-.872c.303-.857.856-1.615 1.664-2.273.804-.658 1.821-.987 3.052-.987.939 0 1.779.182 2.509.553.731.371 1.304.878 1.716 1.52.413.648.621 1.375.621 2.184 0 1.51-.657 2.623-1.977 3.35v.13c.741.334 1.341.82 1.805 1.458.464.637.694 1.415.694 2.33 0 .914-.23 1.687-.683 2.413-.454.727-1.086 1.296-1.878 1.709-.799.412-1.685.621-2.671.621a5.547 5.547 0 0 1-3.203-1.003l-.006.021Z" fill="#fff"/></svg>