
<svg width="159" height="44" viewBox="0 0 159 44" fill="none" xmlns="http://www.w3.org/2000/svg">
<g clip-path="url(#clip0_210_4321)">
<path d="M150.436 0.439941H7.7C3.69041 0.439941 0.440002 3.69035 0.440002 7.69994V36.2999C0.440002 40.3095 3.69041 43.5599 7.7 43.5599H150.436C154.446 43.5599 157.696 40.3095 157.696 36.2999V7.69994C157.696 3.69035 154.446 0.439941 150.436 0.439941Z" fill="black"/>
<mask id="mask0_210_4321" style="mask-type:luminance" maskUnits="userSpaceOnUse" x="11" y="11" width="21" height="22">
<path d="M31.636 11.7095H11V32.2905H31.636V11.7095Z" fill="white"/>
</mask>
<g mask="url(#mask0_210_4321)">
<path d="M20.713 11.7095H11V21.4225H20.713V11.7095Z" fill="white"/>
<path d="M31.636 11.7095H21.923V21.4225H31.636V11.7095Z" fill="white"/>
<path d="M20.713 22.5775H11V32.2905H20.713V22.5775Z" fill="white"/>
<path d="M31.636 22.5775H21.923V32.2905H31.636V22.5775Z" fill="white"/>
</g>
<path d="M41.4617 27.5V17.1001H45.443C46.1946 17.1001 46.8192 17.2186 47.3168 17.4555C47.8179 17.6891 48.192 18.009 48.4391 18.4153C48.6896 18.8215 48.8149 19.2819 48.8149 19.7965C48.8149 20.2197 48.7336 20.5819 48.5711 20.8832C48.4087 21.1812 48.1903 21.4232 47.9161 21.6094C47.6419 21.7957 47.3355 21.9293 46.9969 22.0106V22.1121C47.366 22.1325 47.7197 22.2459 48.0582 22.4524C48.4002 22.6555 48.6795 22.9433 48.8962 23.3156C49.1128 23.6881 49.2211 24.1383 49.2211 24.6664C49.2211 25.2048 49.0908 25.6889 48.8301 26.1188C48.5695 26.5454 48.1768 26.8822 47.652 27.1293C47.1273 27.3765 46.4671 27.5 45.6715 27.5H41.4617ZM43.3457 25.9258H45.3719C46.0558 25.9258 46.5483 25.7955 46.8496 25.5348C47.1543 25.2708 47.3067 24.9322 47.3067 24.5192C47.3067 24.2112 47.2305 23.9335 47.0782 23.6863C46.9259 23.4359 46.7092 23.2395 46.4281 23.0973C46.1472 22.9518 45.812 22.8789 45.4227 22.8789H43.3457V25.9258ZM43.3457 21.5231H45.2094C45.5344 21.5231 45.8273 21.4638 46.0879 21.3453C46.3486 21.2234 46.5534 21.0525 46.7023 20.8325C46.8547 20.609 46.9309 20.345 46.9309 20.0403C46.9309 19.6375 46.7887 19.3056 46.5043 19.045C46.2233 18.7843 45.8053 18.654 45.25 18.654H43.3457V21.5231ZM54.232 27.6524C53.45 27.6524 52.7746 27.4899 52.2058 27.1649C51.6405 26.8365 51.2054 26.3727 50.9007 25.7735C50.596 25.1709 50.4437 24.4616 50.4437 23.6458C50.4437 22.8434 50.596 22.1392 50.9007 21.5332C51.2088 20.9239 51.6387 20.4499 52.1906 20.1113C52.7423 19.7695 53.3907 19.5985 54.1355 19.5985C54.6162 19.5985 55.0698 19.6763 55.4964 19.8321C55.9264 19.9844 56.3056 20.2213 56.6339 20.543C56.9657 20.8646 57.2264 21.2743 57.4159 21.7719C57.6055 22.2662 57.7004 22.8553 57.7004 23.5391V24.1028H51.3069V22.8638H55.9383C55.9349 22.5117 55.8586 22.1985 55.7097 21.9243C55.5608 21.6466 55.3525 21.4283 55.0851 21.2692C54.821 21.11 54.513 21.0305 54.1609 21.0305C53.7851 21.0305 53.455 21.1219 53.1707 21.3047C52.8862 21.4841 52.6646 21.7211 52.5054 22.0157C52.3496 22.3068 52.2701 22.6267 52.2667 22.9754V24.057C52.2667 24.5107 52.3496 24.9001 52.5155 25.225C52.6815 25.5467 52.9134 25.7938 53.2113 25.9664C53.5092 26.1357 53.8579 26.2203 54.2574 26.2203C54.5248 26.2203 54.7669 26.1831 54.9836 26.1087C55.2002 26.0308 55.3881 25.9174 55.5472 25.7684C55.7063 25.6195 55.8265 25.4349 55.9078 25.2149L57.6241 25.4078C57.5158 25.8615 57.3093 26.2576 57.0046 26.5962C56.7033 26.9313 56.3173 27.1919 55.8469 27.3782C55.3763 27.561 54.8379 27.6524 54.232 27.6524ZM59.2555 30.4251V19.7001H61.0633V20.9899H61.17C61.2648 20.8003 61.3985 20.5989 61.5712 20.3856C61.7437 20.1689 61.9774 19.9844 62.272 19.8321C62.5664 19.6763 62.9422 19.5985 63.3992 19.5985C64.0018 19.5985 64.5452 19.7525 65.0293 20.0606C65.5169 20.3652 65.9027 20.8172 66.1872 21.4165C66.475 22.0123 66.6188 22.7435 66.6188 23.6102C66.6188 24.4667 66.4783 25.1946 66.1973 25.7938C65.9163 26.393 65.5338 26.8501 65.0497 27.1649C64.5656 27.4797 64.0171 27.6371 63.4043 27.6371C62.9575 27.6371 62.5868 27.5626 62.2922 27.4137C61.9977 27.2648 61.7607 27.0853 61.5813 26.8755C61.4053 26.6622 61.2681 26.4608 61.17 26.2711H61.0938V30.4251H59.2555ZM61.0582 23.6C61.0582 24.1045 61.1293 24.5462 61.2715 24.9254C61.417 25.3046 61.6253 25.6008 61.8961 25.8141C62.1703 26.024 62.5021 26.129 62.8915 26.129C63.2977 26.129 63.6379 26.0207 63.9122 25.804C64.1864 25.5838 64.3929 25.2843 64.5317 24.9051C64.6738 24.5226 64.745 24.0875 64.745 23.6C64.745 23.1159 64.6756 22.686 64.5368 22.3102C64.3979 21.9344 64.1915 21.6399 63.9172 21.4266C63.643 21.2133 63.3011 21.1067 62.8915 21.1067C62.4988 21.1067 62.1653 21.2099 61.891 21.4165C61.6168 21.623 61.4087 21.9124 61.2665 22.2848C61.1276 22.6572 61.0582 23.0956 61.0582 23.6ZM71.5953 27.6524C70.8167 27.6524 70.1481 27.4815 69.5895 27.1395C69.0343 26.7976 68.606 26.3254 68.3047 25.7227C68.0068 25.1167 67.8579 24.4193 67.8579 23.6305C67.8579 22.8384 68.0102 22.1392 68.3149 21.5332C68.6195 20.9239 69.0495 20.4499 69.6047 20.1113C70.1634 19.7695 70.8235 19.5985 71.5852 19.5985C72.2183 19.5985 72.7785 19.7152 73.266 19.9489C73.757 20.1791 74.148 20.5058 74.4391 20.929C74.7302 21.3487 74.8961 21.8397 74.9367 22.4017H73.1797C73.1086 22.0258 72.9393 21.7127 72.6719 21.4621C72.4078 21.2083 72.054 21.0813 71.6106 21.0813C71.2348 21.0813 70.9048 21.1829 70.6203 21.386C70.336 21.5857 70.1142 21.8734 69.9551 22.2493C69.7994 22.6251 69.7215 23.0753 69.7215 23.6C69.7215 24.1315 69.7994 24.5886 69.9551 24.9711C70.1109 25.3503 70.3292 25.6431 70.6102 25.8496C70.8945 26.0528 71.2281 26.1543 71.6106 26.1543C71.8815 26.1543 72.1235 26.1036 72.3367 26.002C72.5534 25.897 72.7345 25.7464 72.8801 25.5501C73.0257 25.3537 73.1256 25.115 73.1797 24.834H74.9367C74.8927 25.3858 74.7302 25.875 74.4493 26.3016C74.1682 26.7248 73.7857 27.0565 73.3016 27.2969C72.8174 27.5339 72.2487 27.6524 71.5953 27.6524ZM78.2184 25.0117L81.3416 19.7001H83.2306V27.5H81.4532V22.1832L78.3403 27.5H76.4462V19.7001H78.2184V25.0117ZM89.7293 27.5V21.193H88.0637C87.6405 21.193 87.3156 21.2912 87.0887 21.4876C86.8619 21.6839 86.7502 21.9277 86.7536 22.2188C86.7502 22.5099 86.8569 22.7504 87.0734 22.9399C87.2901 23.1295 87.5999 23.2242 88.0027 23.2242H90.3082V24.5649H88.0027C87.3799 24.5649 86.8416 24.4667 86.3879 24.2703C85.9343 24.074 85.5856 23.7963 85.3418 23.4375C85.0981 23.0787 84.9762 22.6589 84.9762 22.1781C84.9762 21.6771 85.0998 21.2421 85.3469 20.8731C85.5975 20.5007 85.9529 20.213 86.4133 20.0098C86.8771 19.8033 87.4272 19.7001 88.0637 19.7001H91.4508V27.5H89.7293ZM84.6918 27.5L86.8704 23.4985H88.6833L86.4997 27.5H84.6918ZM96.1582 29.7648V25.9868H96.7778C96.9436 25.8581 97.0825 25.6837 97.1942 25.4637C97.3059 25.2403 97.3973 24.9779 97.4684 24.6766C97.5429 24.3719 97.6039 24.0316 97.6512 23.6559C97.6986 23.2767 97.7409 22.8688 97.7782 22.4321L98.0016 19.7001H103.638V25.9868H104.847V29.7648H103.07V27.5H97.9661V29.7648H96.1582ZM98.6668 25.9868H101.881V21.1829H99.5962L99.4743 22.4321C99.4065 23.2581 99.3169 23.9656 99.2051 24.5547C99.0934 25.1438 98.914 25.6211 98.6668 25.9868ZM105.681 27.5L105.671 25.9868H105.94C106.143 25.9868 106.314 25.941 106.453 25.8496C106.592 25.7582 106.707 25.606 106.798 25.3927C106.89 25.176 106.961 24.8848 107.011 24.5192C107.062 24.1535 107.098 23.6982 107.118 23.1532L107.255 19.7001H112.942V27.5H111.165V21.2083H108.926L108.804 23.7219C108.774 24.3719 108.701 24.9356 108.586 25.4129C108.474 25.8869 108.315 26.2779 108.108 26.5859C107.905 26.8941 107.65 27.1243 107.341 27.2766C107.033 27.4256 106.67 27.5 106.25 27.5H105.681ZM119.405 27.5V21.193H117.738C117.316 21.193 116.99 21.2912 116.764 21.4876C116.537 21.6839 116.425 21.9277 116.428 22.2188C116.425 22.5099 116.532 22.7504 116.748 22.9399C116.965 23.1295 117.275 23.2242 117.678 23.2242H119.984V24.5649H117.678C117.055 24.5649 116.516 24.4667 116.063 24.2703C115.61 24.074 115.261 23.7963 115.017 23.4375C114.773 23.0787 114.652 22.6589 114.652 22.1781C114.652 21.6771 114.775 21.2421 115.023 20.8731C115.272 20.5007 115.629 20.213 116.088 20.0098C116.553 19.8033 117.103 19.7001 117.738 19.7001H121.126V27.5H119.405ZM114.367 27.5L116.546 23.4985H118.359L116.175 27.5H114.367ZM135.091 17.1001V27.5H133.222V18.6641H128.672V27.5H126.804V17.1001H135.091ZM143.575 27.5L140.152 22.9552H139.228V27.5H137.345V17.1001H139.228V21.3758H139.701L143.397 17.1001H145.718L141.61 21.843L145.896 27.5H143.575Z" fill="white"/>
<path fill-rule="evenodd" clip-rule="evenodd" d="M7.7 0.88C3.93342 0.88 0.88 3.93342 0.88 7.7V36.3C0.88 40.0666 3.93342 43.12 7.7 43.12H150.436C154.203 43.12 157.256 40.0666 157.256 36.3V7.7C157.256 3.93342 154.203 0.88 150.436 0.88H7.7ZM0 7.7C0 3.44741 3.44741 0 7.7 0H150.436C154.689 0 158.136 3.44741 158.136 7.7V36.3C158.136 40.5526 154.689 44 150.436 44H7.7C3.44741 44 0 40.5526 0 36.3V7.7Z" fill="#B1B1B1"/>
</g>
<defs>
<clipPath id="clip0_210_4321">
<rect width="158.4" height="44" fill="white"/>
</clipPath>
</defs>
</svg>
